<svg xmlns="http://www.w3.org/2000/svg" baseProfile="full" width="385" height="100" version="1.1">
  <defs>
    <linearGradient id="a">
      <stop offset="0" stop-color="#121c67"/>
      <stop offset="0.76" stop-color="#7079bd"/>
      <stop offset="1" stop-color="#7079bd"/>
    </linearGradient>
  </defs>
  <g transform="translate(-29.999963,-912.71931)">
    <g transform="matrix(4.0051437,0,0,3.4853648,-515.08115,-525.13594)">
      <path d="m136.1 412.54 6.59 0c1.49 0 2.62 0.18 3.4 0.55 1.05 0.5 1.95 1.38 2.69 2.64 0.75 1.27 1.32 2.81 1.71 4.65 0.39 1.83 0.59 4.09 0.59 6.78 0 2.36-0.18 4.4-0.55 6.11-0.45 2.09-1.08 3.78-1.91 5.07-0.63 0.98-1.47 1.74-2.54 2.29-0.8 0.4-1.86 0.65-3.19 0.61l-6.79 0zm3.61 4.85 0 19 2.69 0c1.01 0 1.73-0.09 2.18-0.27 0.59-0.23 1.07-0.63 1.46-1.19 0.39-0.56 0.7-1.48 0.94-2.77 0.24-1.28 0.37-3.04 0.37-5.25 0-2.22-0.12-3.92-0.37-5.11-0.24-1.19-0.59-2.11-1.02-2.78-0.44-0.67-1-1.12-1.67-1.35-0.5-0.18-1.49-0.27-2.96-0.27z" fill="#121c67"/>
      <path d="m168.55 441.23-4.1 0-1.63-4.56-7.46 0-1.54 4.56-4 0 7.27-20.08 3.98 0zm-6.94-7.95-2.57-7.45-2.52 7.45z" fill="#121c67"/>
      <path d="m169.66 441.23 0-20.08 7.08 0c1.78 0 3.07 0.18 3.88 0.54 0.81 0.36 1.45 1 1.94 1.92 0.48 0.92 0.73 1.98 0.73 3.16 0 1.51-0.37 2.75-1.1 3.73-0.74 0.98-1.83 1.6-3.3 1.86 0.73 0.51 1.33 1.07 1.8 1.69 0.47 0.61 1.11 1.7 1.92 3.26l2.03 3.92-4.02 0-2.43-4.37c-0.86-1.56-1.45-2.55-1.77-2.95-0.32-0.41-0.66-0.68-1.01-0.84-0.36-0.15-0.92-0.23-1.69-0.23l-0.68 0 0 8.38zm3.36-11.59 2.49 0c1.61 0 2.62-0.08 3.02-0.25 0.4-0.16 0.72-0.45 0.94-0.85 0.23-0.4 0.34-0.9 0.34-1.51 0-0.68-0.15-1.22-0.45-1.64-0.3-0.42-0.72-0.68-1.27-0.79-0.27-0.05-1.09-0.07-2.46-0.07l-2.63 0z" fill="#121c67"/>
      <path d="m190.63 441.23 0-16.69-5.59 0 0-3.4 14.98 0 0 3.4-5.58 0 0 16.69z" fill="#121c67"/>
      <path d="m201.01 421.15 3.79 0 0 10.7c0 1.7 0.05 2.8 0.14 3.3 0.16 0.81 0.55 1.46 1.16 1.95 0.61 0.49 1.45 0.73 2.51 0.73 1.08 0 1.89-0.23 2.43-0.69 0.55-0.46 0.88-1.03 0.99-1.7 0.11-0.67 0.17-1.79 0.17-3.35l0-10.92 3.79 0 0 10.37c0 2.37-0.1 4.05-0.31 5.02-0.21 0.98-0.58 1.8-1.13 2.48-0.55 0.67-1.29 1.21-2.21 1.61-0.92 0.4-2.13 0.6-3.61 0.6-1.79 0-3.15-0.22-4.08-0.65-0.93-0.44-1.66-1-2.2-1.7-0.54-0.7-0.89-1.43-1.06-2.19-0.25-1.13-0.37-2.8-0.37-5.01z" fill="#968508"/>
      <path d="m217.24 441.23 0-20.08 6.34 0c2.4 0 3.97 0.1 4.7 0.3 1.12 0.3 2.06 0.96 2.81 1.97 0.76 1.01 1.13 2.31 1.13 3.91 0 1.23-0.22 2.27-0.65 3.11-0.44 0.84-0.99 1.5-1.66 1.98-0.67 0.48-1.35 0.8-2.05 0.95-0.94 0.19-2.31 0.29-4.1 0.29l-2.57 0 0 7.58zm3.95-16.69 0 5.7 2.16 0c1.56 0 2.6-0.11 3.12-0.32 0.52-0.21 0.94-0.54 1.23-0.99 0.3-0.45 0.45-0.97 0.45-1.56 0-0.73-0.21-1.33-0.63-1.81-0.42-0.47-0.95-0.77-1.59-0.89-0.47-0.09-1.42-0.14-2.84-0.14z" fill="#968508"/>
      <path d="m157.32 419.71 43.69 0 7.49-7.17 7.49 7.17 11.24 0-7.49-7.17-69.91 0z" fill="url(#a)"/>
    </g>
  </g>
</svg>