<?xml version="1.0" encoding="UTF-8" standalone="no"?>
<!-- Created with Inkscape (http://www.inkscape.org/) -->

<svg
   xmlns:dc="http://purl.org/dc/elements/1.1/"
   xmlns:cc="http://creativecommons.org/ns#"
   xmlns:rdf="http://www.w3.org/1999/02/22-rdf-syntax-ns#"
   xmlns:svg="http://www.w3.org/2000/svg"
   xmlns="http://www.w3.org/2000/svg"
   xmlns:xlink="http://www.w3.org/1999/xlink"
   xmlns:sodipodi="http://sodipodi.sourceforge.net/DTD/sodipodi-0.dtd"
   xmlns:inkscape="http://www.inkscape.org/namespaces/inkscape"
   width="385"
   height="100.00003"
   id="svg2"
   version="1.1"
   inkscape:version="0.48.5 r10040"
   sodipodi:docname="New document 1">
  <defs
     id="defs4">
    <linearGradient
       id="linearGradient3792">
      <stop
         style="stop-color:#121c67;stop-opacity:1;"
         offset="0"
         id="stop3794" />
      <stop
         id="stop3802"
         offset="0.7638889"
         style="stop-color:#7079bd;stop-opacity:1;" />
      <stop
         id="stop3800"
         offset="1"
         style="stop-color:#7079bd;stop-opacity:1;" />
    </linearGradient>
    <linearGradient
       inkscape:collect="always"
       xlink:href="#linearGradient3792"
       id="linearGradient3798"
       x1="149.82762"
       y1="416.12726"
       x2="227.22809"
       y2="416.12726"
       gradientUnits="userSpaceOnUse" />
  </defs>
  <sodipodi:namedview
     id="base"
     pagecolor="#ffffff"
     bordercolor="#666666"
     borderopacity="1.0"
     inkscape:pageopacity="0.0"
     inkscape:pageshadow="2"
     inkscape:zoom="2.8"
     inkscape:cx="182.49855"
     inkscape:cy="44.034134"
     inkscape:document-units="px"
     inkscape:current-layer="text2985"
     showgrid="false"
     showguides="false"
     fit-margin-top="0"
     fit-margin-left="0"
     fit-margin-right="0"
     fit-margin-bottom="0"
     inkscape:window-width="1854"
     inkscape:window-height="751"
     inkscape:window-x="2267"
     inkscape:window-y="71"
     inkscape:window-maximized="0">
    <inkscape:grid
       type="xygrid"
       id="grid3018"
       empspacing="5"
       visible="true"
       enabled="true"
       snapvisiblegridlinesonly="true"
       originx="-29.999963px"
       originy="-39.64284px" />
  </sodipodi:namedview>
  <metadata
     id="metadata7">
    <rdf:RDF>
      <cc:Work
         rdf:about="">
        <dc:format>image/svg+xml</dc:format>
        <dc:type
           rdf:resource="http://purl.org/dc/dcmitype/StillImage" />
        <dc:title></dc:title>
      </cc:Work>
    </rdf:RDF>
  </metadata>
  <g
     inkscape:label="Layer 1"
     inkscape:groupmode="layer"
     id="layer1"
     transform="translate(-29.999963,-912.71931)">
    <g
       style="font-size:40px;font-style:normal;font-weight:normal;line-height:125%;letter-spacing:0px;word-spacing:0px;fill:#000000;fill-opacity:1;stroke:none;font-family:Sans"
       id="text2985"
       transform="matrix(4.0051437,0,0,3.4853648,-515.08115,-525.13594)">
      <path
         d="m 136.09527,412.54083 6.59445,0 c 1.4871,3e-5 2.62071,0.18266 3.40084,0.54791 1.04826,0.49574 1.94622,1.3763 2.69385,2.64167 0.7476,1.26543 1.31643,2.81455 1.70651,4.64741 0.39004,1.83288 0.58507,4.09298 0.58509,6.7803 -2e-5,2.36122 -0.18286,4.39629 -0.54852,6.10521 -0.44697,2.08726 -1.08487,3.77664 -1.91373,5.06812 -0.62574,0.9784 -1.47087,1.74155 -2.53539,2.28945 -0.79638,0.40441 -1.86112,0.64885 -3.19362,0.60661 l -6.78948,0 z m 3.60805,4.85286 0,19.00052 2.69386,0 c 1.00765,0 1.73494,-0.0913 2.18189,-0.27394 0.58508,-0.23481 1.07063,-0.6327 1.45664,-1.19365 0.38598,-0.56094 0.70087,-1.4839 0.94467,-2.76887 0.24378,-1.28495 0.36567,-3.03629 0.36568,-5.25401 -1e-5,-2.21769 -0.1219,-3.9201 -0.36568,-5.10725 -0.2438,-1.1871 -0.5851,-2.11332 -1.02391,-2.77866 -0.43883,-0.66529 -0.99548,-1.11534 -1.66994,-1.35018 -0.50384,-0.18262 -1.49117,-0.27396 -2.96202,-0.27396 z"
         style="font-variant:normal;font-weight:bold;font-stretch:normal;fill:#121c67;fill-opacity:1;font-family:Arial;-inkscape-font-specification:Arial Bold"
         id="path3004"
         inkscape:connector-curvature="0"
         sodipodi:nodetypes="cccccccccsccccscccccccsc" />
      <path
         d="m 168.55353,441.23222 -4.09908,0 -1.62946,-4.56205 -7.45981,0 -1.54034,4.56205 -3.99723,0 7.26886,-20.08398 3.98453,0 z m -6.93787,-7.94591 -2.57148,-7.45273 -2.52054,7.45273 z"
         style="font-size:20px;fill:#121c67;fill-opacity:1"
         id="path3006"
         inkscape:connector-curvature="0"
         sodipodi:nodetypes="ccccccccccccc" />
      <path
         d="m 169.65777,441.23223 0,-20.08398 7.08118,0 c 1.7807,10e-6 3.07456,0.18039 3.88157,0.54114 0.807,0.36078 1.45298,1.00239 1.93795,1.92483 0.48495,0.92247 0.72744,1.97737 0.72745,3.16467 -1e-5,1.507 -0.36753,2.7514 -1.10254,3.7332 -0.73502,0.98184 -1.83376,1.60062 -3.29622,1.85633 0.72744,0.51147 1.32796,1.07317 1.80156,1.6851 0.47359,0.61193 1.112,1.69878 1.91522,3.26055 l 2.03457,3.91816 -4.02366,0 -2.43239,-4.37025 c -0.86383,-1.56178 -1.45488,-2.54589 -1.77313,-2.95231 -0.31827,-0.40643 -0.65546,-0.685 -1.0116,-0.8357 -0.35615,-0.15069 -0.92068,-0.22603 -1.69357,-0.22605 l -0.68198,0 0,8.38431 z m 3.36441,-11.59008 2.48921,0 c 1.614,10e-6 2.62181,-0.0822 3.02343,-0.2466 0.4016,-0.16438 0.71606,-0.44751 0.94341,-0.84939 0.22731,-0.40185 0.34097,-0.90417 0.34098,-1.50697 -1e-5,-0.67586 -0.14968,-1.22156 -0.44897,-1.63714 -0.29933,-0.41555 -0.72176,-0.67812 -1.26734,-0.78774 -0.2728,-0.0456 -1.09117,-0.0685 -2.45511,-0.0685 l -2.62561,0 z"
         style="font-size:20px;fill:#121c67;fill-opacity:1"
         id="path3008"
         inkscape:connector-curvature="0" />
      <path
         d="m 190.62601,441.23223 0,-16.68642 -5.59367,0 0,-3.39756 14.98074,0 0,3.39756 -5.5808,0 0,16.68642 z"
         style="font-size:20px;fill:#121c67;fill-opacity:1"
         id="path3010"
         inkscape:connector-curvature="0" />
      <path
         d="m 201.01179,421.14825 3.79323,0 0,10.69529 c 0,1.69725 0.047,2.79731 0.14097,3.30019 0.16233,0.80821 0.5489,1.45702 1.15976,1.94643 0.61084,0.48942 1.44595,0.73413 2.50534,0.73413 1.07645,0 1.88806,-0.23124 2.43484,-0.69372 0.54677,-0.46246 0.87568,-1.03046 0.98676,-1.70397 0.11101,-0.6735 0.16658,-1.79152 0.1666,-3.35406 l 0,-10.92429 3.79324,0 0,10.37201 c -3e-5,2.37075 -0.10255,4.04553 -0.30756,5.02437 -0.20506,0.97882 -0.5831,1.80499 -1.13412,2.4785 -0.55107,0.6735 -1.28793,1.21007 -2.2106,1.60968 -0.92269,0.39962 -2.12731,0.59942 -3.61383,0.59942 -1.7941,0 -3.15463,-0.21776 -4.08159,-0.6533 -0.92694,-0.43553 -1.65954,-1.00128 -2.19775,-1.69724 -0.53824,-0.69595 -0.89279,-1.42558 -1.06366,-2.18889 -0.24776,-1.13149 -0.37164,-2.80179 -0.37163,-5.01089 z"
         style="font-size:20px;fill:#968508;fill-opacity:1"
         id="path3012"
         inkscape:connector-curvature="0"
         sodipodi:nodetypes="ccsccsscsccsscsscccsc" />
      <path
         d="m 217.24092,441.23223 0,-20.08398 6.33646,0 c 2.40118,10e-6 3.96639,0.10044 4.69566,0.30139 1.12054,0.30142 2.05877,0.95673 2.81472,1.96593 0.7559,1.00924 1.13389,2.31301 1.1339,3.9113 -1e-5,1.23301 -0.21791,2.26963 -0.65367,3.10988 -0.43578,0.84027 -0.98938,1.50014 -1.66082,1.97962 -0.67145,0.47952 -1.35401,0.79689 -2.04767,0.95214 -0.9427,0.19181 -2.30782,0.28771 -4.09536,0.2877 l -2.5746,0 0,7.57602 z m 3.94862,-16.68642 0,5.69914 2.16107,0 c 1.5563,10e-6 2.59682,-0.10508 3.12153,-0.3151 0.5247,-0.21005 0.93602,-0.53884 1.23395,-0.98638 0.29791,-0.44752 0.44687,-0.96812 0.44689,-1.56179 -2e-5,-0.73065 -0.20901,-1.33343 -0.62698,-1.80839 -0.418,-0.47491 -0.94714,-0.77174 -1.58745,-0.89048 -0.47136,-0.0913 -1.41849,-0.13692 -2.84141,-0.13706 z"
         style="font-size:20px;fill:#968508;fill-opacity:1"
         id="path3014"
         inkscape:connector-curvature="0" />
      <path
         style="fill:url(#linearGradient3798);fill-opacity:1;stroke:none"
         d="m 157.31798,419.71367 43.69382,0 7.49037,-7.17285 7.49036,7.17285 11.23556,0 -7.49037,-7.17285 -69.9101,0 z"
         id="path3020"
         inkscape:connector-curvature="0"
         sodipodi:nodetypes="cccccccc" />
    </g>
  </g>
</svg>
